# xmcd
#
# Track frame offsets:
#	150
#	12235
#	26037
#	42177
#	56555
#	64417
#	80250
#	97687
#	117055
#	125075
#	138857
#	152092
#	164367
#	175655
#	200472
#	218212
#	231020
#	244055
#	261135
#	284467
#	306525
#	320002
#	332522
#
# Disc length: 4688 seconds
#
# Revision: 1
# Processed by: cddbd v1.5.1PL0 Copyright (c) Steve Scherf et al.
# Submitted via: CDex 1.50Beta5
#
DISCID=43124e17
DTITLE=The Rockers - Rockers Original Motion Picture Soundtrack
DYEAR=2003
DGENRE=Soundtrack
TTITLE0=Rock'n'Roll Gypsies/Frame Up Boogie
TTITLE1=Rock'n'Roll Gypsies feat.RYOJI/ロックンロールレコード
TTITLE2=Rock'n'Roll Gypsies Feat.中村俊介/どうしようもない恋の唄
TTITLE3=Ska☆Rockets/LITTLE LEAGUE
TTITLE4=Rock'n'Roll Gypsies Feat.中村俊介/恋をしようよ
TTITLE5=Rock'n'Roll Gypsies Feat.中村俊介/メリージェーン
TTITLE6=Non-Poly/New Song 2
TTITLE7=勝手にしやがれ/エレファント・ピエロ
TTITLE8=大杉 連/恋の確定申告
TTITLE9=Rock'n'Roll Gypsies Feat.中村俊介/キス・ユー 〜 ジャッキー
TTITLE10=ザ・スリル Feat.玉山鉄二/ソーダポップ
TTITLE11=ゴーグルエース/Y.M.G.A
TTITLE12=Rock'n'Roll Gypsies Feat.中村俊介/可愛いアノ娘
TTITLE13=朝本浩文/Black Guitar
TTITLE14=ザ・スリル/THE NEW ODDYSEY
TTITLE15=ザ・トラベラーズ/PINK CHAMPAGNE
TTITLE16=ヘッド・バンカーズ/かえだま
TTITLE17=ゴーグルエース/僕のステッキ君のステップ
TTITLE18=朝本浩文/King's Road
TTITLE19=Rock'n'Roll Gypsies Feat.中村俊介/ショック・ゲーム〜恋をしようよ〜ジャッキー〜可愛いアノ娘
TTITLE20=Potshot/Good Times And Bad Times
TTITLE21=キハラ龍太郎/鈴木俊介/アメイジング・グレース
TTITLE22=The Rockers/涙のモーターウェイ
EXTD=
EXTT0=
EXTT1=
EXTT2=
EXTT3=
EXTT4=
EXTT5=
EXTT6=
EXTT7=
EXTT8=
EXTT9=
EXTT10=
EXTT11=
EXTT12=
EXTT13=
EXTT14=
EXTT15=
EXTT16=
EXTT17=
EXTT18=
EXTT19=
EXTT20=
EXTT21=
EXTT22=
PLAYORDER=
